<?xml version="1.0" standalone="no"?>
<!DOCTYPE svg PUBLIC "-//W3C//DTD SVG 20010904//EN"
 "http://www.w3.org/TR/2001/REC-SVG-20010904/DTD/svg10.dtd">
<svg version="1.0" xmlns="http://www.w3.org/2000/svg"
 width="512.000000pt" height="512.000000pt" viewBox="0 0 512.000000 512.000000"
 preserveAspectRatio="xMidYMid meet">

<g transform="translate(0.000000,512.000000) scale(0.100000,-0.100000)"
fill="#000000" stroke="none">
<path d="M691 4950 c-242 -51 -424 -210 -498 -434 -22 -69 -27 -98 -27 -196 0
-98 5 -127 27 -196 66 -198 224 -353 427 -416 91 -28 263 -31 343 -5 l48 15
244 -488 245 -489 -50 -51 c-100 -103 -182 -249 -221 -395 -31 -114 -31 -316
0 -430 25 -95 87 -229 138 -297 l36 -50 -242 -242 -243 -243 -66 33 c-185 94
-400 58 -548 -90 -189 -190 -189 -482 0 -672 189 -189 483 -190 670 -2 150
151 186 364 92 550 l-33 66 243 243 242 242 50 -36 c68 -51 202 -113 297 -138
64 -18 107 -22 215 -22 162 0 249 20 387 88 144 71 268 180 348 308 l29 45
338 -169 338 -169 0 -38 c0 -110 41 -252 101 -354 201 -342 641 -457 981 -257
407 239 477 791 144 1125 -196 195 -475 261 -737 174 -168 -56 -323 -191 -403
-349 -25 -51 -46 -99 -46 -106 0 -8 -4 -16 -10 -20 -6 -4 -621 294 -636 309
-1 0 7 35 19 76 29 108 29 314 -2 425 -25 95 -87 229 -138 297 l-36 49 39 42
c21 23 228 233 460 467 232 234 443 449 469 478 26 28 51 52 55 52 5 0 32 -16
61 -36 285 -192 660 -154 905 90 283 283 283 729 0 1012 -283 283 -729 283
-1012 0 -222 -222 -275 -547 -134 -826 18 -36 41 -78 52 -93 l20 -28 -390
-397 c-215 -218 -447 -453 -515 -521 l-125 -124 -50 36 c-68 51 -202 113 -297
138 -64 18 -107 22 -215 22 -155 0 -245 -19 -368 -78 -41 -19 -77 -33 -80 -31
-4 3 -113 216 -242 475 l-235 471 25 17 c89 60 187 197 227 317 22 68 26 99
26 196 1 98 -3 127 -26 196 -85 256 -313 428 -582 439 -49 2 -110 0 -134 -5z
m200 -160 c140 -26 279 -134 341 -265 189 -406 -231 -826 -637 -637 -91 43
-176 127 -221 218 -176 356 127 756 517 684z m3499 -17 c179 -49 332 -202 385
-386 22 -75 22 -216 0 -293 -54 -187 -202 -335 -389 -389 -77 -22 -218 -22
-293 0 -185 53 -335 204 -388 388 -24 82 -22 224 4 307 92 291 388 453 681
373z m-2133 -1999 c251 -64 452 -267 519 -524 23 -87 23 -253 1 -340 -39 -147
-134 -298 -245 -385 -71 -57 -196 -120 -282 -142 -87 -22 -254 -22 -340 0
-147 39 -297 134 -386 245 -55 69 -117 194 -140 282 -23 88 -23 254 -1 340
103 389 491 622 874 524z m2089 -945 c99 -18 213 -79 289 -156 218 -220 218
-568 -1 -787 -324 -324 -880 -139 -946 314 -56 379 278 698 658 629z m-3573
-907 c156 -68 225 -261 148 -417 -117 -237 -451 -237 -563 0 -71 151 -10 338
135 412 93 47 182 48 280 5z"/>
<path d="M2703 4945 c-159 -43 -265 -159 -295 -325 -22 -116 23 -252 112 -340
88 -89 224 -134 340 -112 178 33 299 154 332 332 22 115 -23 252 -110 339 -56
56 -107 85 -189 106 -70 18 -121 18 -190 0z m180 -161 c57 -19 131 -95 146
-150 25 -91 3 -178 -62 -242 -96 -94 -230 -96 -328 -5 -102 95 -107 235 -11
335 72 75 157 96 255 62z"/>
<path d="M1903 3985 c-159 -43 -265 -159 -295 -325 -22 -116 23 -252 112 -340
88 -89 224 -134 340 -112 178 33 299 154 332 332 22 115 -23 252 -110 339 -56
56 -107 85 -189 106 -70 18 -121 18 -190 0z m180 -161 c57 -19 131 -95 146
-150 25 -91 3 -178 -62 -242 -96 -94 -230 -96 -328 -5 -102 95 -107 235 -11
335 72 75 157 96 255 62z"/>
<path d="M4555 3427 c-96 -32 -162 -90 -204 -177 -54 -115 -27 -262 65 -354
22 -21 64 -50 94 -65 115 -54 262 -27 354 65 122 123 123 327 1 449 -76 76
-216 113 -310 82z m148 -161 c103 -43 128 -177 48 -257 -112 -113 -296 -12
-267 146 18 94 128 150 219 111z"/>
<path d="M340 3191 c-112 -36 -174 -119 -174 -231 0 -137 96 -234 234 -234
138 0 234 97 234 234 0 95 -44 169 -128 212 -43 22 -128 32 -166 19z m115
-176 c50 -49 15 -135 -55 -135 -41 0 -80 39 -80 80 0 41 39 80 80 80 19 0 40
-9 55 -25z"/>
<path d="M3639 3022 c-233 -61 -390 -300 -351 -534 35 -205 195 -365 400 -400
253 -43 500 139 544 400 47 280 -185 551 -472 551 -30 0 -85 -8 -121 -17z
m253 -170 c59 -26 127 -93 159 -157 35 -72 35 -198 0 -270 -32 -63 -93 -124
-156 -156 -41 -20 -65 -24 -135 -24 -70 0 -94 4 -135 24 -178 88 -238 304
-130 468 38 57 105 109 169 129 57 19 170 12 228 -14z"/>
<path d="M589 2227 c-104 -30 -190 -104 -237 -206 -22 -46 -27 -71 -27 -141 0
-76 3 -92 32 -151 39 -79 102 -140 181 -177 48 -22 71 -27 142 -27 71 0 94 5
142 27 79 37 142 98 181 177 28 58 32 75 32 151 0 76 -4 93 -32 151 -60 121
-170 196 -300 205 -40 2 -87 -2 -114 -9z m203 -183 c125 -88 113 -269 -22
-342 -95 -50 -215 -11 -268 88 -50 95 -11 215 88 268 63 33 143 28 202 -14z"/>
<path d="M2519 1102 c-233 -61 -390 -300 -351 -535 35 -204 195 -364 400 -399
253 -43 500 139 544 400 47 280 -185 551 -472 551 -30 0 -85 -8 -121 -17z
m253 -170 c59 -26 127 -93 159 -157 35 -72 35 -198 0 -270 -32 -63 -93 -124
-156 -156 -41 -20 -65 -24 -135 -24 -70 0 -94 4 -135 24 -178 88 -238 304
-130 468 38 57 105 109 169 129 57 19 170 12 228 -14z"/>
</g>
</svg>
