<?xml version="1.0" standalone="no"?>
<!DOCTYPE svg PUBLIC "-//W3C//DTD SVG 20010904//EN"
 "http://www.w3.org/TR/2001/REC-SVG-20010904/DTD/svg10.dtd">
<svg version="1.0" xmlns="http://www.w3.org/2000/svg"
 width="210.000000pt" height="148.250000pt" viewBox="0 0 820.000000 593.000000"
 preserveAspectRatio="xMidYMid meet">

<g transform="translate(0.000000,593.000000) scale(0.100000,-0.100000)"
fill="#000000" stroke="none">
<path d="M3685 5513 c-740 -36 -1322 -181 -1680 -418 -147 -98 -246 -211 -293
-338 l-22 -59 0 -1693 0 -1694 24 -67 c31 -86 84 -161 162 -232 253 -231 797
-412 1449 -482 229 -25 221 -25 256 9 39 39 39 83 1 121 -25 24 -39 29 -108
35 -581 51 -1083 187 -1373 372 -79 50 -169 140 -198 196 l-24 48 -4 395 c-3
414 -3 421 39 375 28 -31 149 -109 243 -157 383 -195 937 -307 1638 -330 l211
-7 29 26 c40 34 42 98 4 131 -25 21 -39 23 -220 29 -851 29 -1570 220 -1837
487 -108 107 -105 93 -106 548 -1 215 1 392 3 392 2 0 27 -17 55 -39 304 -232
779 -378 1451 -447 243 -25 797 -30 1061 -10 447 35 822 107 1121 216 178 65
395 182 474 256 14 13 28 24 32 24 4 0 7 -180 7 -400 0 -439 1 -445 58 -469
37 -16 77 -5 102 26 20 25 20 44 20 1192 0 1153 0 1167 -21 1220 -97 256 -436
469 -969 607 -415 108 -1051 163 -1585 137z m577 -183 c673 -35 1210 -161
1555 -362 95 -56 193 -143 228 -203 173 -294 -373 -615 -1265 -744 -269 -39
-395 -46 -810 -46 -412 0 -492 5 -790 46 -652 90 -1160 303 -1279 537 -97 190
118 400 576 562 455 161 1153 243 1785 210z m-2212 -1151 c365 -226 950 -361
1674 -388 1032 -38 1892 142 2324 486 l32 26 0 -394 c0 -393 0 -394 -24 -445
-115 -247 -700 -478 -1416 -558 -878 -99 -1835 10 -2378 269 -195 94 -312 188
-364 293 -22 45 -23 58 -24 292 -1 135 1 311 4 392 l5 147 41 -33 c22 -19 79
-58 126 -87z"/>
<path d="M5560 2133 c-193 -21 -347 -97 -473 -233 l-65 -70 -73 0 c-193 0
-359 -107 -443 -283 -22 -47 -44 -78 -63 -89 -38 -22 -117 -103 -153 -158
-120 -181 -123 -435 -8 -628 45 -74 153 -173 230 -211 122 -60 128 -61 958
-61 631 0 765 3 818 15 178 42 328 179 388 356 35 100 37 243 4 339 -48 144
-142 257 -268 323 l-69 37 -13 62 c-53 275 -267 507 -531 577 -77 20 -179 30
-239 24z m189 -198 c96 -25 162 -65 242 -144 116 -115 169 -242 169 -400 l0
-69 74 -16 c116 -26 195 -88 254 -199 24 -47 27 -62 27 -157 0 -92 -3 -112
-26 -160 -48 -102 -147 -179 -259 -200 -69 -13 -1444 -13 -1523 0 -130 21
-234 100 -291 220 -29 60 -31 73 -31 170 0 97 2 110 32 173 36 76 105 149 176
187 37 20 47 31 52 59 19 102 116 209 213 237 61 18 139 15 207 -9 l40 -14 39
65 c75 124 199 222 327 256 70 19 209 20 278 1z"/>
</g>
</svg>
